<mxfile host="app.diagrams.net" agent="Mozilla/5.0 (Windows NT 10.0; Win64; x64) AppleWebKit/537.36 (KHTML, like Gecko) Chrome/127.0.0.0 Safari/537.36 Edg/127.0.0.0" version="24.7.7">
  <diagram name="Halaman-1" id="tmmu7KXRJyWczBXA4KN6">
    <mxGraphModel dx="1299" dy="315" grid="1" gridSize="10" guides="1" tooltips="1" connect="1" arrows="1" fold="1" page="1" pageScale="1" pageWidth="827" pageHeight="1169" math="0" shadow="0">
      <root>
        <mxCell id="0" />
        <mxCell id="1" parent="0" />
        <mxCell id="Wbz3NjuhJ4q8N753vDwS-3" value="" style="rounded=0;whiteSpace=wrap;html=1;fontFamily=Times New Roman;fontSize=10;fillColor=none;" vertex="1" parent="1">
          <mxGeometry x="80" y="20" width="160" height="250" as="geometry" />
        </mxCell>
        <mxCell id="xL8_umoeJNAi22itEqJR-85" value="&lt;span style=&quot;background-color: initial; font-size: 12px;&quot;&gt;successor&lt;/span&gt;" style="text;html=1;align=center;verticalAlign=middle;whiteSpace=wrap;rounded=0;movable=1;resizable=1;rotatable=1;deletable=1;editable=1;locked=0;connectable=1;fontSize=12;fontColor=#000000;container=0;fontFamily=Times New Roman;" parent="1" vertex="1">
          <mxGeometry x="90" y="250" width="70" height="20" as="geometry" />
        </mxCell>
        <mxCell id="xL8_umoeJNAi22itEqJR-86" value="&lt;span style=&quot;background-color: initial; font-size: 12px;&quot;&gt;Hash&lt;/span&gt;" style="text;html=1;align=center;verticalAlign=middle;whiteSpace=wrap;rounded=0;movable=1;resizable=1;rotatable=1;deletable=1;editable=1;locked=0;connectable=1;fontSize=12;container=0;fontColor=#000000;fontFamily=Times New Roman;" parent="1" vertex="1">
          <mxGeometry x="160" y="250" width="70" height="20" as="geometry" />
        </mxCell>
        <mxCell id="Wbz3NjuhJ4q8N753vDwS-5" value="Block" style="text;html=1;align=center;verticalAlign=middle;whiteSpace=wrap;rounded=0;fontFamily=Times New Roman;fontSize=10;" vertex="1" parent="1">
          <mxGeometry x="80" y="20" width="160" height="20" as="geometry" />
        </mxCell>
        <mxCell id="Wbz3NjuhJ4q8N753vDwS-17" value="" style="rounded=0;whiteSpace=wrap;html=1;fillColor=none;fontSize=10;" vertex="1" parent="1">
          <mxGeometry x="100" y="290" width="120" height="100" as="geometry" />
        </mxCell>
        <mxCell id="Wbz3NjuhJ4q8N753vDwS-8" value="" style="rounded=0;whiteSpace=wrap;html=1;fillColor=none;strokeColor=default;fontFamily=Times New Roman;fontSize=10;" vertex="1" parent="1">
          <mxGeometry x="90" y="190" width="140" height="60" as="geometry" />
        </mxCell>
        <mxCell id="xL8_umoeJNAi22itEqJR-46" value="time" style="text;html=1;align=center;verticalAlign=middle;whiteSpace=wrap;rounded=0;movable=1;resizable=1;rotatable=1;deletable=1;editable=1;locked=0;connectable=1;fontSize=10;fontFamily=Times New Roman;" parent="1" vertex="1">
          <mxGeometry x="110" y="330" width="50" height="20" as="geometry" />
        </mxCell>
        <mxCell id="xL8_umoeJNAi22itEqJR-47" value="issuer" style="text;html=1;align=center;verticalAlign=middle;whiteSpace=wrap;rounded=0;movable=1;resizable=1;rotatable=1;deletable=1;editable=1;locked=0;connectable=1;fontSize=10;fontFamily=Times New Roman;" parent="1" vertex="1">
          <mxGeometry x="110" y="370" width="50" height="20" as="geometry" />
        </mxCell>
        <mxCell id="xL8_umoeJNAi22itEqJR-49" value="identifier" style="text;html=1;align=center;verticalAlign=middle;whiteSpace=wrap;rounded=0;movable=1;resizable=1;rotatable=1;deletable=1;editable=1;locked=0;connectable=1;fontSize=10;fontFamily=Times New Roman;strokeColor=none;dashed=1;dashPattern=1 2;" parent="1" vertex="1">
          <mxGeometry x="110" y="350" width="50" height="20" as="geometry" />
        </mxCell>
        <mxCell id="xL8_umoeJNAi22itEqJR-50" value="Metadata" style="text;html=1;align=center;verticalAlign=middle;whiteSpace=wrap;rounded=0;movable=1;resizable=1;rotatable=1;deletable=1;editable=1;locked=0;connectable=1;fontSize=10;strokeColor=none;fillColor=none;fontStyle=0;fontFamily=Times New Roman;" parent="1" vertex="1">
          <mxGeometry x="160" y="310" width="50" height="20" as="geometry" />
        </mxCell>
        <mxCell id="xL8_umoeJNAi22itEqJR-51" value="&lt;span style=&quot;background-color: initial; font-size: 10px;&quot;&gt;uint64&lt;/span&gt;" style="text;html=1;align=center;verticalAlign=middle;whiteSpace=wrap;rounded=0;movable=1;resizable=1;rotatable=1;deletable=1;editable=1;locked=0;connectable=1;fontSize=10;fontFamily=Times New Roman;" parent="1" vertex="1">
          <mxGeometry x="160" y="330" width="50" height="20" as="geometry" />
        </mxCell>
        <mxCell id="xL8_umoeJNAi22itEqJR-52" value="Address" style="text;html=1;align=center;verticalAlign=middle;whiteSpace=wrap;rounded=0;movable=1;resizable=1;rotatable=1;deletable=1;editable=1;locked=0;connectable=1;fontSize=10;fontFamily=Times New Roman;" parent="1" vertex="1">
          <mxGeometry x="160" y="370" width="50" height="20" as="geometry" />
        </mxCell>
        <mxCell id="xL8_umoeJNAi22itEqJR-54" value="Hash" style="text;html=1;align=center;verticalAlign=middle;whiteSpace=wrap;rounded=0;movable=1;resizable=1;rotatable=1;deletable=1;editable=1;locked=0;connectable=1;fontSize=10;fontFamily=Times New Roman;" parent="1" vertex="1">
          <mxGeometry x="160" y="350" width="50" height="20" as="geometry" />
        </mxCell>
        <mxCell id="Wbz3NjuhJ4q8N753vDwS-89" style="edgeStyle=orthogonalEdgeStyle;rounded=0;orthogonalLoop=1;jettySize=auto;html=1;exitX=0.5;exitY=0;exitDx=0;exitDy=0;entryX=0.5;entryY=1;entryDx=0;entryDy=0;" edge="1" parent="1" source="Wbz3NjuhJ4q8N753vDwS-9" target="Wbz3NjuhJ4q8N753vDwS-8">
          <mxGeometry relative="1" as="geometry" />
        </mxCell>
        <mxCell id="Wbz3NjuhJ4q8N753vDwS-9" value="Transaction : 0" style="text;html=1;align=center;verticalAlign=middle;whiteSpace=wrap;rounded=0;fontSize=10;fontFamily=Times New Roman;fillColor=none;strokeColor=none;" vertex="1" parent="1">
          <mxGeometry x="100" y="290" width="120" height="20" as="geometry" />
        </mxCell>
        <mxCell id="Wbz3NjuhJ4q8N753vDwS-88" style="edgeStyle=orthogonalEdgeStyle;rounded=0;orthogonalLoop=1;jettySize=auto;html=1;exitX=0;exitY=0.5;exitDx=0;exitDy=0;entryX=1;entryY=0.5;entryDx=0;entryDy=0;" edge="1" parent="1" source="Wbz3NjuhJ4q8N753vDwS-8" target="Wbz3NjuhJ4q8N753vDwS-76">
          <mxGeometry relative="1" as="geometry" />
        </mxCell>
        <mxCell id="Wbz3NjuhJ4q8N753vDwS-13" value="List of Transactions" style="text;html=1;align=center;verticalAlign=middle;whiteSpace=wrap;rounded=0;fontSize=10;fontFamily=Times New Roman;" vertex="1" parent="1">
          <mxGeometry x="90" y="190" width="140" height="60" as="geometry" />
        </mxCell>
        <mxCell id="Wbz3NjuhJ4q8N753vDwS-16" value="metadata" style="text;html=1;align=center;verticalAlign=middle;whiteSpace=wrap;rounded=0;movable=1;resizable=1;rotatable=1;deletable=1;editable=1;locked=0;connectable=1;fontSize=10;fontFamily=Times New Roman;dashed=1;dashPattern=1 2;strokeColor=#007FFF;" vertex="1" parent="1">
          <mxGeometry x="110" y="310" width="50" height="20" as="geometry" />
        </mxCell>
        <mxCell id="Wbz3NjuhJ4q8N753vDwS-1" value="" style="rounded=0;fillColor=none;verticalAlign=middle;fontSize=10;fontFamily=Times New Roman;fontColor=default;whiteSpace=wrap;html=1;spacing=0;container=0;" vertex="1" parent="1">
          <mxGeometry x="90" y="40" width="140" height="140" as="geometry" />
        </mxCell>
        <mxCell id="xL8_umoeJNAi22itEqJR-5" value="Time" style="text;align=center;verticalAlign=middle;rounded=0;movable=1;resizable=1;rotatable=1;deletable=1;editable=1;locked=0;connectable=1;fontSize=10;container=0;fontFamily=Times New Roman;fontColor=default;whiteSpace=wrap;html=1;spacing=0;" parent="1" vertex="1">
          <mxGeometry x="100" y="60" width="60" height="20" as="geometry" />
        </mxCell>
        <mxCell id="xL8_umoeJNAi22itEqJR-6" value="Nonce" style="text;align=center;verticalAlign=middle;rounded=0;movable=1;resizable=1;rotatable=1;deletable=1;editable=1;locked=0;connectable=1;fontSize=10;container=0;fontFamily=Times New Roman;fontColor=default;whiteSpace=wrap;html=1;spacing=0;" parent="1" vertex="1">
          <mxGeometry x="100" y="80" width="60" height="20" as="geometry" />
        </mxCell>
        <mxCell id="xL8_umoeJNAi22itEqJR-8" value="State" style="text;align=center;verticalAlign=middle;rounded=0;movable=1;resizable=1;rotatable=1;deletable=1;editable=1;locked=0;connectable=1;fontSize=10;container=0;fontFamily=Times New Roman;fontColor=default;whiteSpace=wrap;html=1;spacing=0;" parent="1" vertex="1">
          <mxGeometry x="100" y="120" width="60" height="20" as="geometry" />
        </mxCell>
        <mxCell id="xL8_umoeJNAi22itEqJR-9" value="Root" style="text;align=center;verticalAlign=middle;rounded=0;movable=1;resizable=1;rotatable=1;deletable=1;editable=1;locked=0;connectable=1;fontSize=10;container=0;fontFamily=Times New Roman;whiteSpace=wrap;html=1;spacing=0;dashed=1;dashPattern=1 2;strokeColor=#000000;" parent="1" vertex="1">
          <mxGeometry x="100" y="140" width="60" height="20" as="geometry" />
        </mxCell>
        <mxCell id="xL8_umoeJNAi22itEqJR-10" value="Ancestors" style="text;align=center;verticalAlign=middle;rounded=0;movable=1;resizable=1;rotatable=1;deletable=1;editable=1;locked=0;connectable=1;fontSize=10;container=0;fontFamily=Times New Roman;fontColor=default;whiteSpace=wrap;html=1;spacing=0;" parent="1" vertex="1">
          <mxGeometry x="100" y="100" width="60" height="20" as="geometry" />
        </mxCell>
        <mxCell id="xL8_umoeJNAi22itEqJR-11" value="Author" style="text;align=center;verticalAlign=middle;rounded=0;movable=1;resizable=1;rotatable=1;deletable=1;editable=1;locked=0;connectable=1;fontSize=10;container=0;fontFamily=Times New Roman;fontColor=default;whiteSpace=wrap;html=1;spacing=0;" parent="1" vertex="1">
          <mxGeometry x="100" y="160" width="60" height="20" as="geometry" />
        </mxCell>
        <mxCell id="xL8_umoeJNAi22itEqJR-19" value="uint64" style="text;align=center;verticalAlign=middle;rounded=0;movable=1;resizable=1;rotatable=1;deletable=1;editable=1;locked=0;connectable=1;fontSize=10;container=0;fontFamily=Times New Roman;fontColor=default;whiteSpace=wrap;html=1;spacing=0;" parent="1" vertex="1">
          <mxGeometry x="160" y="60" width="60" height="20" as="geometry" />
        </mxCell>
        <mxCell id="xL8_umoeJNAi22itEqJR-20" value="uint64" style="text;align=center;verticalAlign=middle;rounded=0;movable=1;resizable=1;rotatable=1;deletable=1;editable=1;locked=0;connectable=1;fontSize=10;container=0;fontFamily=Times New Roman;fontColor=default;whiteSpace=wrap;html=1;spacing=0;" parent="1" vertex="1">
          <mxGeometry x="160" y="80" width="60" height="20" as="geometry" />
        </mxCell>
        <mxCell id="xL8_umoeJNAi22itEqJR-21" value="Hash" style="text;align=center;verticalAlign=middle;rounded=0;movable=1;resizable=1;rotatable=1;deletable=1;editable=1;locked=0;connectable=1;fontSize=10;container=0;fontFamily=Times New Roman;fontColor=default;whiteSpace=wrap;html=1;spacing=0;" parent="1" vertex="1">
          <mxGeometry x="160" y="120" width="60" height="20" as="geometry" />
        </mxCell>
        <mxCell id="xL8_umoeJNAi22itEqJR-22" value="Hash" style="text;align=center;verticalAlign=middle;rounded=0;movable=1;resizable=1;rotatable=1;deletable=1;editable=1;locked=0;connectable=1;fontSize=10;container=0;fontFamily=Times New Roman;fontColor=default;whiteSpace=wrap;html=1;spacing=0;" parent="1" vertex="1">
          <mxGeometry x="160" y="140" width="60" height="20" as="geometry" />
        </mxCell>
        <mxCell id="xL8_umoeJNAi22itEqJR-23" value="Hash" style="text;align=center;verticalAlign=middle;rounded=0;movable=1;resizable=1;rotatable=1;deletable=1;editable=1;locked=0;connectable=1;fontSize=10;container=0;fontFamily=Times New Roman;fontColor=default;whiteSpace=wrap;html=1;spacing=0;" parent="1" vertex="1">
          <mxGeometry x="160" y="100" width="60" height="20" as="geometry" />
        </mxCell>
        <mxCell id="xL8_umoeJNAi22itEqJR-24" value="Address" style="text;align=center;verticalAlign=middle;rounded=0;movable=1;resizable=1;rotatable=1;deletable=1;editable=1;locked=0;connectable=1;fontSize=10;container=0;fontFamily=Times New Roman;fontColor=default;whiteSpace=wrap;html=1;spacing=0;" parent="1" vertex="1">
          <mxGeometry x="160" y="160" width="60" height="20" as="geometry" />
        </mxCell>
        <mxCell id="Wbz3NjuhJ4q8N753vDwS-2" value="Header" style="text;align=center;verticalAlign=middle;rounded=0;strokeColor=none;fontSize=10;fontFamily=Times New Roman;fontColor=default;whiteSpace=wrap;html=1;spacing=0;container=0;" vertex="1" parent="1">
          <mxGeometry x="90" y="40" width="140" height="20" as="geometry" />
        </mxCell>
        <mxCell id="Wbz3NjuhJ4q8N753vDwS-76" value="" style="rounded=0;whiteSpace=wrap;html=1;fillColor=default;container=0;" vertex="1" parent="1">
          <mxGeometry x="-200" y="120" width="240" height="200" as="geometry" />
        </mxCell>
        <mxCell id="Wbz3NjuhJ4q8N753vDwS-67" style="edgeStyle=orthogonalEdgeStyle;rounded=0;orthogonalLoop=1;jettySize=auto;html=1;exitX=0.5;exitY=0;exitDx=0;exitDy=0;curved=1;dashed=1;" edge="1" parent="1" source="Wbz3NjuhJ4q8N753vDwS-43" target="Wbz3NjuhJ4q8N753vDwS-49">
          <mxGeometry relative="1" as="geometry">
            <Array as="points">
              <mxPoint x="-110" y="260" />
            </Array>
          </mxGeometry>
        </mxCell>
        <mxCell id="Wbz3NjuhJ4q8N753vDwS-43" value="Tx&lt;div&gt;0&lt;/div&gt;" style="rounded=0;whiteSpace=wrap;html=1;fontSize=10;fillColor=default;dashed=1;strokeColor=#000000;container=0;" vertex="1" parent="1">
          <mxGeometry x="-190" y="270" width="40" height="40" as="geometry" />
        </mxCell>
        <mxCell id="Wbz3NjuhJ4q8N753vDwS-68" style="edgeStyle=orthogonalEdgeStyle;rounded=0;orthogonalLoop=1;jettySize=auto;html=1;exitX=0.5;exitY=0;exitDx=0;exitDy=0;entryX=0.5;entryY=1;entryDx=0;entryDy=0;curved=1;dashed=1;" edge="1" parent="1" source="Wbz3NjuhJ4q8N753vDwS-44" target="Wbz3NjuhJ4q8N753vDwS-49">
          <mxGeometry relative="1" as="geometry" />
        </mxCell>
        <mxCell id="Wbz3NjuhJ4q8N753vDwS-44" value="Tx&lt;div&gt;1&lt;/div&gt;" style="rounded=0;whiteSpace=wrap;html=1;fontSize=10;fillColor=default;dashed=1;strokeColor=#000000;container=0;" vertex="1" parent="1">
          <mxGeometry x="-130" y="270" width="40" height="40" as="geometry" />
        </mxCell>
        <mxCell id="Wbz3NjuhJ4q8N753vDwS-69" style="edgeStyle=orthogonalEdgeStyle;rounded=0;orthogonalLoop=1;jettySize=auto;html=1;exitX=0.5;exitY=0;exitDx=0;exitDy=0;entryX=0.5;entryY=1;entryDx=0;entryDy=0;curved=1;dashed=1;" edge="1" parent="1" source="Wbz3NjuhJ4q8N753vDwS-45" target="Wbz3NjuhJ4q8N753vDwS-51">
          <mxGeometry relative="1" as="geometry" />
        </mxCell>
        <mxCell id="Wbz3NjuhJ4q8N753vDwS-45" value="Tx&lt;div&gt;2&lt;/div&gt;" style="rounded=0;whiteSpace=wrap;html=1;fontSize=10;fillColor=default;dashed=1;container=0;" vertex="1" parent="1">
          <mxGeometry x="-70" y="270" width="40" height="40" as="geometry" />
        </mxCell>
        <mxCell id="Wbz3NjuhJ4q8N753vDwS-70" style="edgeStyle=orthogonalEdgeStyle;rounded=0;orthogonalLoop=1;jettySize=auto;html=1;exitX=0.5;exitY=0;exitDx=0;exitDy=0;entryX=0.5;entryY=1;entryDx=0;entryDy=0;curved=1;dashed=1;" edge="1" parent="1" source="Wbz3NjuhJ4q8N753vDwS-46" target="Wbz3NjuhJ4q8N753vDwS-51">
          <mxGeometry relative="1" as="geometry">
            <Array as="points">
              <mxPoint x="10" y="260" />
              <mxPoint x="-50" y="260" />
            </Array>
          </mxGeometry>
        </mxCell>
        <mxCell id="Wbz3NjuhJ4q8N753vDwS-46" value="Tx&lt;div&gt;n + 1&lt;/div&gt;" style="rounded=0;whiteSpace=wrap;html=1;fontSize=10;fillColor=default;dashed=1;container=0;" vertex="1" parent="1">
          <mxGeometry x="-10" y="270" width="40" height="40" as="geometry" />
        </mxCell>
        <mxCell id="Wbz3NjuhJ4q8N753vDwS-71" style="edgeStyle=orthogonalEdgeStyle;rounded=0;orthogonalLoop=1;jettySize=auto;html=1;exitX=0.5;exitY=0;exitDx=0;exitDy=0;entryX=0.5;entryY=1;entryDx=0;entryDy=0;curved=1;dashed=1;" edge="1" parent="1" source="Wbz3NjuhJ4q8N753vDwS-49" target="Wbz3NjuhJ4q8N753vDwS-55">
          <mxGeometry relative="1" as="geometry">
            <Array as="points">
              <mxPoint x="-110" y="190" />
              <mxPoint x="-80" y="190" />
            </Array>
          </mxGeometry>
        </mxCell>
        <mxCell id="Wbz3NjuhJ4q8N753vDwS-49" value="Tx&lt;div&gt;0_1&lt;/div&gt;" style="rounded=0;whiteSpace=wrap;html=1;fontSize=10;fillColor=default;dashed=1;container=0;" vertex="1" parent="1">
          <mxGeometry x="-130" y="200" width="40" height="40" as="geometry" />
        </mxCell>
        <mxCell id="Wbz3NjuhJ4q8N753vDwS-73" style="edgeStyle=orthogonalEdgeStyle;rounded=0;orthogonalLoop=1;jettySize=auto;html=1;exitX=0.5;exitY=0;exitDx=0;exitDy=0;entryX=0.5;entryY=1;entryDx=0;entryDy=0;curved=1;dashed=1;" edge="1" parent="1" source="Wbz3NjuhJ4q8N753vDwS-51" target="Wbz3NjuhJ4q8N753vDwS-55">
          <mxGeometry relative="1" as="geometry">
            <Array as="points">
              <mxPoint x="-50" y="190" />
              <mxPoint x="-80" y="190" />
            </Array>
          </mxGeometry>
        </mxCell>
        <mxCell id="Wbz3NjuhJ4q8N753vDwS-51" value="Tx&lt;div&gt;2_n+1&lt;/div&gt;" style="rounded=0;whiteSpace=wrap;html=1;fontSize=10;fillColor=default;dashed=1;container=0;" vertex="1" parent="1">
          <mxGeometry x="-70" y="200" width="40" height="40" as="geometry" />
        </mxCell>
        <mxCell id="Wbz3NjuhJ4q8N753vDwS-86" style="edgeStyle=orthogonalEdgeStyle;rounded=0;orthogonalLoop=1;jettySize=auto;html=1;exitX=1;exitY=0.5;exitDx=0;exitDy=0;entryX=0;entryY=0.5;entryDx=0;entryDy=0;" edge="1" parent="1" source="Wbz3NjuhJ4q8N753vDwS-55" target="xL8_umoeJNAi22itEqJR-9">
          <mxGeometry relative="1" as="geometry">
            <Array as="points">
              <mxPoint x="50" y="150" />
              <mxPoint x="50" y="150" />
            </Array>
          </mxGeometry>
        </mxCell>
        <mxCell id="Wbz3NjuhJ4q8N753vDwS-55" value="Root" style="rounded=0;whiteSpace=wrap;html=1;fontSize=10;fillColor=default;dashed=1;container=0;" vertex="1" parent="1">
          <mxGeometry x="-100" y="130" width="40" height="40" as="geometry" />
        </mxCell>
        <mxCell id="Wbz3NjuhJ4q8N753vDwS-90" style="edgeStyle=orthogonalEdgeStyle;rounded=0;orthogonalLoop=1;jettySize=auto;html=1;exitX=1;exitY=0.5;exitDx=0;exitDy=0;entryX=0;entryY=0.5;entryDx=0;entryDy=0;" edge="1" parent="1" source="Wbz3NjuhJ4q8N753vDwS-20" target="Wbz3NjuhJ4q8N753vDwS-16">
          <mxGeometry relative="1" as="geometry" />
        </mxCell>
        <mxCell id="Wbz3NjuhJ4q8N753vDwS-20" value="" style="rounded=0;whiteSpace=wrap;html=1;fontSize=10;fontFamily=Times New Roman;fillColor=default;" vertex="1" parent="1">
          <mxGeometry x="-80" y="360" width="120" height="140" as="geometry" />
        </mxCell>
        <mxCell id="xL8_umoeJNAi22itEqJR-28" value="Nonce" style="text;html=1;align=center;verticalAlign=middle;whiteSpace=wrap;rounded=0;movable=1;resizable=1;rotatable=1;deletable=1;editable=1;locked=0;connectable=1;fontSize=10;fontFamily=Times New Roman;fillColor=none;" parent="1" vertex="1">
          <mxGeometry x="-70" y="380" width="50" height="20" as="geometry" />
        </mxCell>
        <mxCell id="xL8_umoeJNAi22itEqJR-29" value="&lt;span style=&quot;background-color: initial; font-size: 10px;&quot;&gt;Fee&lt;/span&gt;" style="text;html=1;align=center;verticalAlign=middle;whiteSpace=wrap;rounded=0;movable=1;resizable=1;rotatable=1;deletable=1;editable=1;locked=0;connectable=1;fontSize=10;fontFamily=Times New Roman;fillColor=none;" parent="1" vertex="1">
          <mxGeometry x="-70" y="400" width="50" height="20" as="geometry" />
        </mxCell>
        <mxCell id="xL8_umoeJNAi22itEqJR-30" value="Recipient" style="text;html=1;align=center;verticalAlign=middle;whiteSpace=wrap;rounded=0;movable=1;resizable=1;rotatable=1;deletable=1;editable=1;locked=0;connectable=1;fontSize=10;fontFamily=Times New Roman;fillColor=none;" parent="1" vertex="1">
          <mxGeometry x="-70" y="440" width="50" height="20" as="geometry" />
        </mxCell>
        <mxCell id="xL8_umoeJNAi22itEqJR-31" value="V, R, S" style="text;html=1;align=center;verticalAlign=middle;whiteSpace=wrap;rounded=0;movable=1;resizable=1;rotatable=1;deletable=1;editable=1;locked=0;connectable=1;fontSize=10;fontFamily=Times New Roman;fillColor=none;" parent="1" vertex="1">
          <mxGeometry x="-70" y="480" width="50" height="20" as="geometry" />
        </mxCell>
        <mxCell id="xL8_umoeJNAi22itEqJR-32" value="Amount" style="text;html=1;align=center;verticalAlign=middle;whiteSpace=wrap;rounded=0;movable=1;resizable=1;rotatable=1;deletable=1;editable=1;locked=0;connectable=1;fontSize=10;fontFamily=Times New Roman;fillColor=none;" parent="1" vertex="1">
          <mxGeometry x="-70" y="420" width="50" height="20" as="geometry" />
        </mxCell>
        <mxCell id="xL8_umoeJNAi22itEqJR-34" value="uint64" style="text;html=1;align=center;verticalAlign=middle;whiteSpace=wrap;rounded=0;movable=1;resizable=1;rotatable=1;deletable=1;editable=1;locked=0;connectable=1;fontSize=10;fontFamily=Times New Roman;fillColor=none;" parent="1" vertex="1">
          <mxGeometry x="-20" y="380" width="50" height="20" as="geometry" />
        </mxCell>
        <mxCell id="xL8_umoeJNAi22itEqJR-35" value="&lt;span style=&quot;background-color: initial; font-size: 10px;&quot;&gt;uint64&lt;/span&gt;" style="text;html=1;align=center;verticalAlign=middle;whiteSpace=wrap;rounded=0;movable=1;resizable=1;rotatable=1;deletable=1;editable=1;locked=0;connectable=1;fontSize=10;fontFamily=Times New Roman;fillColor=none;" parent="1" vertex="1">
          <mxGeometry x="-20" y="400" width="50" height="20" as="geometry" />
        </mxCell>
        <mxCell id="xL8_umoeJNAi22itEqJR-36" value="Address" style="text;html=1;align=center;verticalAlign=middle;whiteSpace=wrap;rounded=0;movable=1;resizable=1;rotatable=1;deletable=1;editable=1;locked=0;connectable=1;fontSize=10;fontFamily=Times New Roman;fillColor=none;" parent="1" vertex="1">
          <mxGeometry x="-20" y="440" width="50" height="20" as="geometry" />
        </mxCell>
        <mxCell id="xL8_umoeJNAi22itEqJR-37" value="[ ]byte" style="text;html=1;align=center;verticalAlign=middle;whiteSpace=wrap;rounded=0;movable=1;resizable=1;rotatable=1;deletable=1;editable=1;locked=0;connectable=1;fontSize=10;fontFamily=Times New Roman;fillColor=none;" parent="1" vertex="1">
          <mxGeometry x="-20" y="480" width="50" height="20" as="geometry" />
        </mxCell>
        <mxCell id="xL8_umoeJNAi22itEqJR-38" value="uint64" style="text;html=1;align=center;verticalAlign=middle;whiteSpace=wrap;rounded=0;movable=1;resizable=1;rotatable=1;deletable=1;editable=1;locked=0;connectable=1;fontSize=10;fontFamily=Times New Roman;fillColor=none;" parent="1" vertex="1">
          <mxGeometry x="-20" y="420" width="50" height="20" as="geometry" />
        </mxCell>
        <mxCell id="xL8_umoeJNAi22itEqJR-40" value="Data" style="text;html=1;align=center;verticalAlign=middle;whiteSpace=wrap;rounded=0;movable=1;resizable=1;rotatable=1;deletable=1;editable=1;locked=0;connectable=1;fontSize=10;fontFamily=Times New Roman;fontColor=#F19C99;fillColor=none;" parent="1" vertex="1">
          <mxGeometry x="-70" y="460" width="50" height="20" as="geometry" />
        </mxCell>
        <mxCell id="xL8_umoeJNAi22itEqJR-41" value="[ ]byte" style="text;html=1;align=center;verticalAlign=middle;whiteSpace=wrap;rounded=0;movable=1;resizable=1;rotatable=1;deletable=1;editable=1;locked=0;connectable=1;fontSize=10;fontFamily=Times New Roman;fontColor=#F19C99;fillColor=none;" parent="1" vertex="1">
          <mxGeometry x="-20" y="460" width="50" height="20" as="geometry" />
        </mxCell>
        <mxCell id="Wbz3NjuhJ4q8N753vDwS-21" value="DynamicTx" style="text;html=1;align=center;verticalAlign=middle;whiteSpace=wrap;rounded=0;movable=1;resizable=1;rotatable=1;deletable=1;editable=1;locked=0;connectable=1;fontSize=10;fontFamily=Times New Roman;fillColor=none;" vertex="1" parent="1">
          <mxGeometry x="-80" y="360" width="120" height="20" as="geometry" />
        </mxCell>
        <mxCell id="Wbz3NjuhJ4q8N753vDwS-91" value="" style="rounded=0;whiteSpace=wrap;html=1;" vertex="1" parent="1">
          <mxGeometry x="-80" y="530" width="120" height="200" as="geometry" />
        </mxCell>
        <mxCell id="Wbz3NjuhJ4q8N753vDwS-92" value="WithdrawTx" style="text;html=1;align=center;verticalAlign=middle;whiteSpace=wrap;rounded=0;fontSize=10;fontFamily=Times New Roman;" vertex="1" parent="1">
          <mxGeometry x="-80" y="530" width="120" height="20" as="geometry" />
        </mxCell>
      </root>
    </mxGraphModel>
  </diagram>
</mxfile>
